<svg width="340" height="224" viewBox="0 0 340 224" class="css-1j8o68f"><defs id="SvgjsDefs6834"></defs><g id="SvgjsG6835" featurekey="rootContainer" transform="matrix(1,0,0,1,0,0)" fill="#375194"><rect xmlns="http://www.w3.org/2000/svg" width="340" height="224" rx="10" ry="10"></rect></g><g id="SvgjsG6836" featurekey="aMgJeN-0" transform="matrix(5.710430145263672,0,0,5.710430145263672,79.22201313229331,-11.395646714762833)" fill="#3fc1c9"><title xmlns="http://www.w3.org/2000/svg">data, seo, marketing, business, web, internet, website, optimization, technology, search, engine, co</title><path xmlns="http://www.w3.org/2000/svg" d="M27.86,20a5.25,5.25,0,0,1-4.09,2L14.5,22A1.5,1.5,0,0,0,13,23.48v3.27l1.08-1.62a.5.5,0,0,1,.83.55l-2,3h0a.49.49,0,0,1-.16.15h0a.45.45,0,0,1-.45,0l0,0a.49.49,0,0,1-.12-.11l0,0-2-3a.5.5,0,0,1,.83-.55L12,26.76V23.48a2.48,2.48,0,0,1,.74-1.78A2.43,2.43,0,0,1,14.51,21l9.26,0a4.26,4.26,0,0,0,3.32-1.58,4.3,4.3,0,0,0,.85-3.61,4.18,4.18,0,0,0-1.73-2.57A4.25,4.25,0,0,0,21.79,13a6.47,6.47,0,0,1-2.49,4.17.5.5,0,1,1-.6-.8,5.47,5.47,0,0,0,2.14-3.76v0a4.43,4.43,0,0,0,0-.6,5.36,5.36,0,0,0-3.5-5.12,5.56,5.56,0,0,0-5.11.66A5.48,5.48,0,0,0,10,12a.56.56,0,0,1-.15.49.52.52,0,0,1-.47.15,4.27,4.27,0,1,0-2.07,8.28l2.21,0a1.61,1.61,0,0,0,1.07-.44A1.49,1.49,0,0,0,11,19.41V16.15L9.92,17.78a.5.5,0,1,1-.83-.55l2-3,0,0a.48.48,0,0,1,.78,0l0,0,2,3a.5.5,0,1,1-.83.55L12,16.15v3.26a2.48,2.48,0,0,1-.74,1.77,2.63,2.63,0,0,1-1.78.73l-2.27,0H7.1A5.27,5.27,0,0,1,9,11.51,6.48,6.48,0,0,1,17.71,5.9a6.35,6.35,0,0,1,4.17,5.92,5.26,5.26,0,0,1,4.89.59,5.19,5.19,0,0,1,2.15,3.19A5.3,5.3,0,0,1,27.86,20Z"></path></g><g id="SvgjsG6837" featurekey="8L6ael-0" transform="matrix(1.9615535736083984,0,0,1.9615535736083984,20,163.48607474641517)" fill="#f5f5f5"><path d="M0 5.98 l8.6 0 c3.74 0.16 6.7 3.24 6.7 7 c0 3.78 -2.96 6.86 -6.7 7.02 l-8.6 0 l0 -10.9 l8.6 0 c2.02 0.16 3.62 1.82 3.62 3.9 c0 2 -1.54 3.72 -3.54 3.88 l-5.56 0 l0 -4.92 l1.56 0 l0 3.36 l3.92 -0.02 c1.18 -0.1 2.08 -1.12 2.08 -2.3 c0 -1.02 -0.64 -1.86 -1.54 -2.2 c-0.34 -0.14 -0.54 -0.14 -1.08 -0.14 l-6.5 0 l0 7.78 l7.04 0 c2.86 -0.16 5.14 -2.52 5.14 -5.46 c0 -2.9 -2.28 -5.28 -5.14 -5.44 l-8.6 0 l0 -1.56 z M24.68 15.32 l0.9 -1.56 l2.72 4.68 l1.8 0 c-0.4 -0.64 -4.2 -7.14 -4.52 -7.78 l-3.92 6.8 l-1.46 2.54 l-5.4 0 c0.3 -0.5 2.32 -4.02 4.26 -7.4 c1.14 -1.98 2.4 -4.2 3.82 -6.62 l1.8 0 l-3.72 6.44 l-3.46 6.02 l1.8 0 c2.46 -4.34 4 -6.9 6.28 -10.9 c0.14 0.24 7.18 12.44 7.22 12.46 l-5.4 0 z M31.64 10.66 l0 -4.68 l15.3 0 l0 4.68 l-3.76 0 l0 -1.56 l2.2 0 l0 -1.56 l-12.18 0 l0 1.56 l5.32 0 l-0.02 9.34 l1.56 0 l0 -9.34 l1.56 0 l0 10.9 l-4.68 0 l0 -9.34 l-5.3 0 z M65.04 5.98 l0 4.68 l-10.62 0 l0 1.56 l7.88 0 l0 1.56 l-9.44 0 l0 -4.68 l10.62 0 l0 -1.56 l-12.18 0 l0 10.9 l12.18 0 l0 -1.56 l-10.62 0 l0 -1.56 l12.18 0 l0 4.68 l-15.3 0 l0 -14.02 l15.3 0 z M78.46000000000001 12.84 l0 -6.86 l4.68 0 l0 14.02 l-4.68 0 l-7.5 -8.68 l0 -2.4 l8.22 9.52 l2.4 0 l0 -10.9 l-1.56 0 l0 9.5 l-8.22 -9.5 l-2.4 0 l0 10.9 l1.56 0 l0 -4.72 l1.56 1.8 l0 4.48 l-4.68 0 l0 -14.02 l4.68 0 z M87.5 7.539999999999999 l0 7.78 l13.82 0 l0 4.68 l-15.38 0 l0 -1.56 l13.84 0 l0 -1.56 l-13.84 0 l0 -10.9 l4.68 0 l0 7.8 l-1.56 0 l0 -6.24 l-1.56 0 z M110.30000000000001 5.359999999999999 c4.2 0 7.62 3.42 7.62 7.64 s-3.42 7.62 -7.62 7.62 c-4.22 0 -7.64 -3.4 -7.64 -7.62 s3.42 -7.64 7.64 -7.64 z M110.30000000000001 19.08 c3.36 0 6.08 -2.72 6.08 -6.08 s-2.72 -6.1 -6.08 -6.1 c-3.38 0 -6.1 2.74 -6.1 6.1 s2.72 6.08 6.1 6.08 z M110.30000000000001 8.44 c2.5 0 4.54 2.06 4.54 4.56 s-2.04 4.54 -4.54 4.54 s-4.56 -2.04 -4.56 -4.54 s2.06 -4.56 4.56 -4.56 z M110.30000000000001 16 c1.66 0 3 -1.34 3 -3 c0 -1.68 -1.34 -3.02 -3 -3.02 c-1.68 0 -3.02 1.34 -3.02 3.02 c0 1.66 1.34 3 3.02 3 z M134.84 20 l-5.4 0 l-1.82 -3.14 l-3.5 0 l0 3.14 l-4.66 0 l0 -7.8 l11.44 0.02 c1.3 0 2.34 -1.06 2.34 -2.34 c0 -1.3 -1.04 -2.34 -2.34 -2.34 l-9.88 0 l0 1.56 l9.88 0 c0.42 0.02 0.74 0.36 0.74 0.78 s-0.32 0.76 -0.74 0.78 l-0.02 0 l-0.02 0 l-11.4 0 l0 -4.68 l11.44 0 c2.16 0 3.9 1.74 3.9 3.9 c0 2.14 -1.74 3.9 -3.9 3.9 l-9.88 -0.02 l0 4.68 l1.56 0 l0 -3.14 l5.94 0 c0.64 1.16 1.72 2.94 1.82 3.14 l1.8 0 c-0.16 -0.22 -1.08 -1.86 -1.82 -3.14 l1.8 0 c0.66 1.14 1.32 2.32 1.86 3.2 z M137.64000000000001 5.98 l8.6 0 c3.74 0.16 6.7 3.24 6.7 7 c0 3.78 -2.96 6.86 -6.7 7.02 l-8.6 0 l0 -10.9 l8.6 0 c2.02 0.16 3.62 1.82 3.62 3.9 c0 2 -1.54 3.72 -3.54 3.88 l-5.56 0 l0 -4.92 l1.56 0 l0 3.36 l3.92 -0.02 c1.18 -0.1 2.08 -1.12 2.08 -2.3 c0 -1.02 -0.64 -1.86 -1.54 -2.2 c-0.34 -0.14 -0.54 -0.14 -1.08 -0.14 l-6.5 0 l0 7.78 l7.04 0 c2.86 -0.16 5.14 -2.52 5.14 -5.46 c0 -2.9 -2.28 -5.28 -5.14 -5.44 l-8.6 0 l0 -1.56 z"></path></g></svg>
