<?xml version="1.0" encoding="utf-8"?>
<svg viewBox="0 0 160 150" xmlns="http://www.w3.org/2000/svg">
  <g id="SvgjsG6835" featurekey="rootContainer" fill="#375194" transform="matrix(1, 0, 0, 1, 6.709606, 5.740376)">
    <rect xmlns="http://www.w3.org/2000/svg" width="340" height="224" rx="10" ry="10" style="fill-opacity: 0; fill: rgb(255, 255, 255);"/>
  </g>
  <g id="SvgjsG6836" featurekey="aMgJeN-0" transform="matrix(5.71043, 0, 0, 5.71043, -5.238782, -21.573917)" fill="#3fc1c9">
    <title xmlns="http://www.w3.org/2000/svg">data, seo, marketing, business, web, internet, website, optimization, technology, search, engine, co</title>
    <path xmlns="http://www.w3.org/2000/svg" d="M27.86,20a5.25,5.25,0,0,1-4.09,2L14.5,22A1.5,1.5,0,0,0,13,23.48v3.27l1.08-1.62a.5.5,0,0,1,.83.55l-2,3h0a.49.49,0,0,1-.16.15h0a.45.45,0,0,1-.45,0l0,0a.49.49,0,0,1-.12-.11l0,0-2-3a.5.5,0,0,1,.83-.55L12,26.76V23.48a2.48,2.48,0,0,1,.74-1.78A2.43,2.43,0,0,1,14.51,21l9.26,0a4.26,4.26,0,0,0,3.32-1.58,4.3,4.3,0,0,0,.85-3.61,4.18,4.18,0,0,0-1.73-2.57A4.25,4.25,0,0,0,21.79,13a6.47,6.47,0,0,1-2.49,4.17.5.5,0,1,1-.6-.8,5.47,5.47,0,0,0,2.14-3.76v0a4.43,4.43,0,0,0,0-.6,5.36,5.36,0,0,0-3.5-5.12,5.56,5.56,0,0,0-5.11.66A5.48,5.48,0,0,0,10,12a.56.56,0,0,1-.15.49.52.52,0,0,1-.47.15,4.27,4.27,0,1,0-2.07,8.28l2.21,0a1.61,1.61,0,0,0,1.07-.44A1.49,1.49,0,0,0,11,19.41V16.15L9.92,17.78a.5.5,0,1,1-.83-.55l2-3,0,0a.48.48,0,0,1,.78,0l0,0,2,3a.5.5,0,1,1-.83.55L12,16.15v3.26a2.48,2.48,0,0,1-.74,1.77,2.63,2.63,0,0,1-1.78.73l-2.27,0H7.1A5.27,5.27,0,0,1,9,11.51,6.48,6.48,0,0,1,17.71,5.9a6.35,6.35,0,0,1,4.17,5.92,5.26,5.26,0,0,1,4.89.59,5.19,5.19,0,0,1,2.15,3.19A5.3,5.3,0,0,1,27.86,20Z"/>
  </g>
</svg>